<svg xmlns="http://www.w3.org/2000/svg" version="1.1" xmlns:xlink="http://www.w3.org/1999/xlink" xmlns:svgjs="http://svgjs.com/svgjs" width="1440" height="560" preserveAspectRatio="none" viewBox="0 0 1440 560"><g mask="url(&quot;#SvgjsMask1012&quot;)" fill="none"><path d="M272.2 609.35C481.56 592.15 625.66 169.4 987.69 168.74 1349.72 168.08 1516.18 384.73 1703.18 387.14" stroke="rgba(51,121,194,0.58)" stroke-width="2"></path><path d="M383.73 574.01C495.21 572.86 597.96 453.04 812.94 453.02 1027.92 453 1027.54 523.02 1242.14 523.02 1456.75 523.02 1562.63 453.25 1671.35 453.02" stroke="rgba(51,121,194,0.58)" stroke-width="2"></path><path d="M153.6 639.6C352.68 622.58 489.57 215.75 830.99 215.41 1172.4 215.07 1327.73 463.37 1508.37 467.41" stroke="rgba(51,121,194,0.58)" stroke-width="2"></path><path d="M378.2 645.72C557.72 630.04 680.41 260.98 987.55 260.67 1294.7 260.36 1434.16 486.5 1596.91 490.27" stroke="rgba(51,121,194,0.58)" stroke-width="2"></path><path d="M478.02 602.64C585.09 601.38 682.98 481.22 888.74 481.19 1094.51 481.16 1094.1 551.19 1299.47 551.19 1504.83 551.19 1606.03 481.44 1710.19 481.19" stroke="rgba(51,121,194,0.58)" stroke-width="2"></path></g><defs><mask id="SvgjsMask1012"><rect width="1440" height="560" fill="#ffffff"></rect></mask></defs></svg>